<?xml version="1.0" standalone="no"?>
<!DOCTYPE svg PUBLIC "-//W3C//DTD SVG 20010904//EN"
 "http://www.w3.org/TR/2001/REC-SVG-20010904/DTD/svg10.dtd">
<svg version="1.0" xmlns="http://www.w3.org/2000/svg"
 width="300.000000pt" height="240.000000pt" viewBox="0 0 300.000000 240.000000"
 preserveAspectRatio="xMidYMid meet">

<g transform="translate(0.000000,240.000000) scale(0.100000,-0.100000)"
fill="#000000" stroke="none">
<path d="M1151 1524 c-26 -24 -51 -79 -146 -332 -142 -378 -131 -342 -103
-342 40 0 124 46 158 87 19 23 58 102 97 198 35 88 66 161 67 163 2 1 27 -57
56 -130 90 -225 111 -257 200 -297 41 -19 65 -21 286 -21 234 0 242 1 275 23
54 36 76 77 83 160 12 119 -12 182 -85 226 -30 19 -50 21 -180 21 -105 0 -150
4 -163 13 -21 15 -25 62 -7 80 8 8 68 14 169 17 130 4 162 8 188 24 34 20 60
59 74 106 l9 30 -253 0 c-247 0 -254 -1 -287 -23 -66 -44 -79 -77 -79 -196 0
-120 14 -155 72 -191 29 -18 51 -20 183 -20 120 0 155 -3 173 -16 27 -18 28
-48 4 -72 -16 -16 -38 -19 -153 -21 -185 -3 -223 4 -269 45 -32 30 -47 60
-110 231 -85 229 -102 253 -177 260 -45 5 -54 2 -82 -23z"/>
</g>
</svg>
